<svg width="40" height="40" viewBox="0 0 40 40" fill="none" xmlns="http://www.w3.org/2000/svg">
<path fill-rule="evenodd" clip-rule="evenodd" d="M16.2789 1.4099C17.3381 0.463859 18.6836 0 20.2905 0H20.3229L20.3552 0.00137018C21.8723 0.0656377 23.099 0.630278 24.0357 1.55976C24.5527 2.07282 24.9589 2.67423 25.2838 3.31641C26.0563 3.06433 26.8672 2.91122 27.6956 2.94075C29.1507 2.99262 30.4889 3.60126 31.6292 4.8358L31.6341 4.84111L31.639 4.84646C32.5923 5.89914 33.1098 7.10932 33.0918 8.4392C33.0817 9.18686 32.9032 9.91702 32.6009 10.6241C33.3136 10.982 33.9893 11.4208 34.5481 11.9841C35.5724 13.0165 36.1056 14.3645 35.9826 16.0543C35.9138 17.4863 35.3842 18.7044 34.4311 19.633C33.9079 20.1428 33.289 20.5346 32.6124 20.8299C32.8525 21.5548 32.9959 22.3133 32.9668 23.0874C32.9135 24.5052 32.2889 25.809 31.0218 26.9201L31.0164 26.9248L31.0109 26.9296C29.9323 27.8568 28.7043 28.352 27.3881 28.3693C26.5885 28.3798 25.8131 28.2135 25.0747 27.9226C24.4515 28.7869 23.8108 29.513 23.1443 30.0742C22.1987 30.8705 21.1101 31.4082 19.8931 31.418C18.6666 31.4279 17.5829 30.8999 16.6587 30.1013C15.9982 29.5306 15.3786 28.7891 14.7884 27.9094C13.8356 28.2028 12.9121 28.3501 12.014 28.2801C10.676 28.1758 9.56272 27.6038 8.60836 26.674L8.5902 26.6563L8.57268 26.638C7.66492 25.6903 7.12628 24.5762 7.05647 23.2669C7.01221 22.4366 7.15956 21.5837 7.45124 20.7062C6.79279 20.3793 6.14957 19.9741 5.60051 19.4485C4.60687 18.4973 4 17.2286 4 15.582C4 13.9913 4.57662 12.7444 5.56343 11.8001C6.09685 11.2896 6.72485 10.8922 7.38111 10.5692C7.10041 9.80062 6.93762 8.9993 6.96857 8.1849C7.02201 6.77925 7.64695 5.4984 8.86709 4.43472L8.87071 4.43156C9.98548 3.46609 11.2376 2.93307 12.6101 2.9157C13.376 2.90601 14.1212 3.0577 14.8413 3.32371C15.2108 2.60353 15.6759 1.94841 16.2789 1.4099ZM18.2925 3.55021C17.819 3.97316 17.4009 4.66961 17.041 5.76551L16.4596 7.53572L14.8376 6.55742C13.9381 6.01485 13.2249 5.81165 12.6488 5.81894C12.1097 5.82576 11.5248 6.01827 10.8523 6.60009C10.1865 7.18115 9.96755 7.73866 9.9465 8.29236C9.92305 8.90925 10.1425 9.68267 10.672 10.6284L11.5019 12.1108L9.87314 12.6879C8.83848 13.0545 8.11477 13.4282 7.65152 13.8716C7.24768 14.258 6.97997 14.7532 6.97997 15.582C6.97997 16.4517 7.26709 16.9735 7.68894 17.3773C8.16982 17.8377 8.89936 18.2113 9.89437 18.5806L11.3854 19.1341L10.7168 20.5456C10.1734 21.6927 10.0002 22.5116 10.0324 23.1163C10.0616 23.6633 10.2634 24.1411 10.7339 24.6387C11.262 25.1474 11.7332 25.3455 12.2517 25.3859C12.8392 25.4317 13.6488 25.2865 14.8427 24.7943L16.0657 24.2902L16.7199 25.4162C17.4238 26.6278 18.0673 27.4377 18.6359 27.929C19.1924 28.4098 19.5925 28.5169 19.8684 28.5147C20.1538 28.5124 20.5863 28.3907 21.1958 27.8775C21.8112 27.3592 22.5122 26.5183 23.2904 25.2775L24.0789 24.0204L25.3574 24.8071C26.1357 25.286 26.798 25.4733 27.3478 25.4661C27.8676 25.4592 28.4258 25.278 29.0338 24.7571C29.749 24.128 29.9676 23.546 29.9888 22.9812C30.0128 22.3423 29.7877 21.5594 29.2884 20.5865L28.4309 18.9155L30.3045 18.5186C31.2637 18.3155 31.9153 17.9781 32.3239 17.5799C32.7069 17.2068 32.9714 16.6906 33.0064 15.9061L33.0074 15.884L33.0091 15.8619C33.0785 14.9489 32.8172 14.417 32.4056 14.0021C31.9236 13.5163 31.1396 13.0998 29.9986 12.6829L28.2404 12.0405L29.282 10.5183C29.8801 9.64421 30.1047 8.9481 30.1121 8.401C30.119 7.89353 29.9422 7.36329 29.4093 6.77281C28.7636 6.07593 28.1663 5.86295 27.5866 5.84229C26.9309 5.81891 26.1274 6.03826 25.1288 6.52474L23.5708 7.28376L23.0426 5.66644C22.7313 4.71303 22.3516 4.03289 21.9093 3.59392C21.5105 3.19817 21.0074 2.94176 20.2573 2.90358C19.3013 2.90946 18.7184 3.16987 18.2925 3.55021Z" fill="#D5D1ED"/>
<path d="M26.274 25.4854C26.5173 25.922 26.7718 26.4503 27.0151 26.8868C27.8608 28.369 31.1583 35.1452 32.0041 36.6273C32.2361 36.9721 32.3746 37.328 32.3263 37.7061C32.4052 38.3483 32.0991 38.943 31.677 39.3653C31.1727 39.8904 30.4365 40.0707 29.6664 39.9758C28.9898 39.8698 28.4775 39.5582 28.0361 39.052C27.9313 38.9713 27.9201 38.8796 27.9088 38.7878C27.179 37.4781 23.9975 30.8743 23.1743 29.5757C23.047 29.3115 22.931 29.1391 22.8038 28.875C22.5605 28.4384 22.3285 28.0936 22.0853 27.657" fill="#D5D1ED"/>
</svg>
