<svg width="40" height="40" viewBox="0 0 40 40" fill="none" xmlns="http://www.w3.org/2000/svg">
<path d="M20.8896 8.21772C20.8896 6.29236 20.8896 4.46911 20.8896 2.57293C22.5354 2.57293 24.1664 2.57293 25.8567 2.57293C25.4119 4.33784 24.9671 6.08816 24.4926 7.82389C24.4481 7.98434 24.1664 8.18855 23.9885 8.20313C22.9951 8.2323 21.9868 8.21772 20.8896 8.21772Z" fill="#D5D1ED"/>
<path d="M14.0692 2.5C15.804 2.5 17.3756 2.5 19.0066 2.5C19.0066 4.30867 19.0066 6.20485 19.0066 8.20313C17.939 8.20313 16.8715 8.21772 15.804 8.18855C15.6853 8.18855 15.5222 7.99893 15.4926 7.86765C15.0033 6.1465 14.5585 4.42535 14.0692 2.5Z" fill="#D5D1ED"/>
<path d="M7.07084 3.41892C8.8056 3.17096 10.4366 2.92299 12.0527 2.7042C12.1862 2.68962 12.4679 2.87924 12.4975 3.0251C12.9423 4.65873 13.3427 6.29236 13.8023 8.10103C12.201 7.78014 10.5107 8.26148 9.45799 6.58408C8.77595 5.50472 7.91598 4.52746 7.07084 3.41892Z" fill="#D5D1ED"/>
<path d="M32.8847 3.44809C31.8023 4.84835 30.7792 6.16109 29.7562 7.47383C29.6672 7.57593 29.5189 7.66345 29.3855 7.69262C28.3476 7.83848 27.3097 7.96975 26.1384 8.1302C26.5832 6.40905 26.9687 4.80459 27.4283 3.21471C27.4728 3.03968 27.9176 2.83548 28.1549 2.85006C29.6969 3.01051 31.2241 3.2293 32.8847 3.44809Z" fill="#D5D1ED"/>
<path d="M20.9193 36.4562C20.9193 35.1581 20.9193 33.7724 20.9193 32.2992C22.1054 32.2992 23.2471 32.2701 24.3888 32.3284C24.5964 32.343 24.8781 32.693 24.9522 32.941C25.2784 34.0495 25.5453 35.1727 25.8715 36.4708C24.2109 36.4562 22.5947 36.4562 20.9193 36.4562Z" fill="#D5D1ED"/>
<path d="M26.4646 32.1096C27.5766 31.9637 28.6145 31.8179 29.6672 31.7158C29.8303 31.7012 30.0527 31.8325 30.1565 31.9637C31.0461 33.1015 31.9209 34.2683 32.8847 35.5227C31.061 35.7853 29.3558 36.0332 27.5914 36.2812C27.2059 34.8955 26.8501 33.5682 26.4646 32.1096Z" fill="#D5D1ED"/>
<path d="M13.5206 32.1096C13.1647 33.539 12.8385 34.8664 12.4827 36.2812C10.7183 36.0332 8.99835 35.7999 7.14498 35.5373C8.12356 34.2538 9.01318 33.0869 9.93245 31.92C10.0362 31.7887 10.2883 31.6866 10.4514 31.7012C11.4448 31.8325 12.4382 31.9637 13.5206 32.1096Z" fill="#D5D1ED"/>
<path d="M14.1137 36.5C14.4695 35.0706 14.7661 33.8308 15.0923 32.6055C15.1219 32.4743 15.3443 32.2846 15.4778 32.2846C16.6491 32.2992 17.8204 32.3576 19.0214 32.4013C19.0214 33.8308 19.0214 35.1873 19.0214 36.5C17.4053 36.5 15.8188 36.5 14.1137 36.5Z" fill="#D5D1ED"/>
<path d="M24.4481 30.651C23.2175 30.7094 22.0906 30.7677 20.9193 30.826C20.9193 29.382 20.9193 27.9964 20.9193 26.4502C21.6606 26.4502 22.3723 26.4356 23.0692 26.4648C23.2175 26.4648 23.4547 26.6253 23.4843 26.742C23.8254 28.0255 24.1219 29.3091 24.4481 30.651Z" fill="#D5D1ED"/>
<path d="M19.0066 30.8406C17.8946 30.7823 16.7974 30.7239 15.5519 30.6656C15.8633 29.3091 16.1598 28.0109 16.5008 26.7128C16.5305 26.5961 16.7974 26.4648 16.9605 26.4648C17.6277 26.4356 18.2801 26.4502 19.0066 26.4502C19.0066 27.9234 19.0066 29.3383 19.0066 30.8406Z" fill="#D5D1ED"/>
<path d="M11.089 30.1259C11.8007 28.8278 12.4382 27.6317 13.1203 26.4648C13.5947 25.6626 14.2471 26.2898 14.8995 26.2752C14.5881 27.6025 14.3213 28.8715 13.9951 30.1259C13.9654 30.2718 13.6392 30.4322 13.4761 30.4176C12.7051 30.3593 11.9489 30.228 11.089 30.1259Z" fill="#D5D1ED"/>
<path d="M25.0708 26.319C26.5535 25.9689 26.5535 25.9689 27.2208 27.1795C27.7397 28.1276 28.2586 29.0903 28.8221 30.1259C27.8731 30.2572 26.9984 30.3885 26.0642 30.5343C25.7232 29.1049 25.397 27.7046 25.0708 26.319Z" fill="#D5D1ED"/>
<path d="M31.6244 31.3074C32.3806 30.8844 33.0478 30.9136 33.6409 31.3365C34.7825 32.1825 35.8946 33.0723 37.0066 33.9474C37.0807 34.0058 37.1104 34.0933 37.1993 34.2392C36.4432 34.4725 35.7611 34.7205 35.0494 34.881C34.8567 34.9247 34.5156 34.8372 34.397 34.6913C33.4629 33.612 32.5585 32.4743 31.6244 31.3074Z" fill="#D5D1ED"/>
<path d="M8.31631 31.3074C7.39703 32.4888 6.50741 33.6411 5.57331 34.7497C5.43987 34.9101 5.02471 34.9393 4.77265 34.881C4.13509 34.7205 3.52718 34.4725 2.75618 34.21C3.28995 33.787 3.73476 33.4369 4.17957 33.0869C4.93575 32.5034 5.72158 31.9492 6.46293 31.3511C7.04119 30.8698 7.60461 30.9136 8.31631 31.3074Z" fill="#D5D1ED"/>
<path d="M2 5.22758C3.06755 4.83376 4.00165 4.45453 4.98023 4.14822C5.15815 4.08988 5.48435 4.22115 5.61779 4.3816C6.40362 5.30051 7.1598 6.24861 7.94563 7.22587C6.52224 7.34256 2.97858 6.20485 2 5.22758Z" fill="#D5D1ED"/>
<path d="M38 5.3151C36.1318 6.58408 34.1301 6.96332 31.9209 7.31338C32.8254 6.20485 33.626 5.213 34.4563 4.23574C34.5453 4.11905 34.827 4.0607 34.9753 4.10446C35.9539 4.4837 36.9176 4.87752 38 5.3151Z" fill="#D5D1ED"/>
<path d="M20.8896 14.0375C21.542 14.0375 22.1351 14.0375 22.832 14.0375C22.5947 15.6274 22.3871 17.1881 22.0758 18.7488C22.0313 18.953 21.3789 19.026 20.8896 19.2156C20.8896 17.3923 20.8896 15.7733 20.8896 14.0375Z" fill="#D5D1ED"/>
<path d="M17.8797 19.0114C17.6277 17.3777 17.3756 15.7441 17.1087 14.0521C17.7611 14.0521 18.3542 14.0521 19.0066 14.0521C19.0066 15.7003 19.0066 17.334 19.0066 19.0114C18.6507 19.0114 18.2949 19.0114 17.8797 19.0114Z" fill="#D5D1ED"/>
<path d="M23.0395 24.6999C22.8913 24.7437 22.8023 24.7874 22.7133 24.7874C22.1499 24.7874 21.5865 24.7874 20.9638 24.7874C20.9638 23.4601 20.9638 22.1765 20.9638 20.893C21.9868 20.5429 22.2537 20.6742 22.4761 21.7244C22.6837 22.7016 22.8616 23.6935 23.0395 24.6999Z" fill="#D5D1ED"/>
<path d="M19.0214 20.8638C19.0214 22.1328 19.0214 23.4018 19.0214 24.7291C18.3394 24.7291 17.687 24.7291 16.8715 24.7291C17.1236 23.4747 17.346 22.2495 17.6425 21.0534C17.7463 20.6304 18.1763 20.6012 19.0214 20.8638Z" fill="#D5D1ED"/>
<path d="M18.9918 12.3601C16.575 12.4477 16.6046 12.4039 16.2932 10.1722C17.168 10.1722 18.0428 10.1722 18.9918 10.1722C18.9918 10.9015 18.9918 11.6017 18.9918 12.3601Z" fill="#D5D1ED"/>
<path d="M23.6623 10.2598C23.2619 12.5498 23.6474 12.4477 20.9341 12.3747C20.9341 11.6892 20.9341 11.0036 20.9341 10.2598C21.8385 10.2598 22.7282 10.2598 23.6623 10.2598Z" fill="#D5D1ED"/>
<path d="M28.5404 13.3082C28.229 14.8106 27.9176 16.2546 27.6359 17.6986C27.5173 18.3112 27.0577 18.4133 26.4053 18.4717C26.5387 17.757 26.6425 17.086 26.8056 16.4296C27.0132 15.6128 27.2652 14.796 27.5173 13.9938C27.6507 13.5708 27.888 13.1915 28.5404 13.3082Z" fill="#D5D1ED"/>
<path d="M25.7381 13.8479C25.5601 14.621 25.3674 15.394 25.2043 16.1525C25.0708 16.8089 24.9226 17.4798 24.8633 18.1508C24.804 18.8072 24.5074 19.0551 23.7364 18.8947C23.9292 17.757 24.1071 16.6338 24.2998 15.4961C24.3443 15.2044 24.4036 14.9273 24.4778 14.6501C24.6557 13.9063 24.7743 13.8187 25.7381 13.8479Z" fill="#D5D1ED"/>
<path d="M14.2471 13.7312C14.8699 13.7312 15.3295 13.7458 15.4333 14.3584C15.6557 15.7587 15.8781 17.1735 16.0857 18.5738C16.1005 18.6613 16.0708 18.7634 16.0412 19.0405C15.7298 18.8363 15.3591 18.7196 15.3147 18.53C14.9292 16.9839 14.603 15.394 14.2471 13.7312Z" fill="#D5D1ED"/>
<path d="M13.3723 18.3404C12.7348 18.3112 12.3789 18.0341 12.2751 17.4069C12.0675 16.2109 11.7858 15.044 11.5486 13.8625C11.5189 13.6875 11.5189 13.4979 11.5041 13.0603C11.8896 13.3812 12.2455 13.5124 12.3196 13.7458C12.7348 15.1752 13.0906 16.6338 13.4465 18.0779C13.4465 18.1362 13.3871 18.2383 13.3723 18.3404Z" fill="#D5D1ED"/>
<path d="M25.8863 24.5249C25.4415 24.5832 25.1005 24.6416 24.7002 24.6999C24.4629 23.3434 24.2257 22.0307 23.9885 20.6888C24.5519 20.4262 24.8633 20.5283 24.9967 21.0972C25.2932 22.2057 25.575 23.3142 25.8863 24.5249Z" fill="#D5D1ED"/>
<path d="M15.2554 24.627C14.8699 24.6124 14.5585 24.5832 14.0988 24.5686C14.2175 24.0727 14.3213 23.6497 14.4399 23.2121C14.6326 22.512 14.8699 21.8265 15.0033 21.1118C15.1071 20.5575 15.3888 20.4554 15.967 20.645C15.7298 21.9286 15.5074 23.2267 15.2554 24.627Z" fill="#D5D1ED"/>
<path d="M28.3476 24.0581C28.0659 24.1311 27.8435 24.1894 27.5618 24.2623C27.1763 22.9204 26.8056 21.6369 26.4201 20.2804C26.7759 20.1782 27.0873 20.0907 27.5025 19.974C27.799 21.3451 28.0659 22.6725 28.3476 24.0581Z" fill="#D5D1ED"/>
<path d="M11.6672 25.9106C11.0148 27.0191 10.3476 28.1276 9.69522 29.2216C9.41351 29.7029 9.04283 29.8634 8.44975 29.4258C9.23558 28.2297 10.0214 27.0045 10.8517 25.823C10.9555 25.6772 11.3262 25.7063 11.5634 25.648C11.5931 25.7501 11.6227 25.823 11.6672 25.9106Z" fill="#D5D1ED"/>
<path d="M24.9967 12.0684C25.5453 9.60339 25.145 10.0118 27.5914 9.86594C26.7759 11.8205 26.687 12.1122 24.9967 12.0684Z" fill="#D5D1ED"/>
<path d="M14.8995 12.0684C13.4465 12.258 12.5568 11.1057 12.4086 9.92428C14.2026 9.61797 14.7957 10.1285 14.8995 12.0684Z" fill="#D5D1ED"/>
<path d="M11.6524 23.9998C11.9193 22.6579 12.201 21.3305 12.4679 20.0324C13.3871 20.1053 13.4613 20.1928 13.2685 20.9805C13.0313 21.8848 12.7644 22.7891 12.5124 23.6935C12.3937 24.1456 12.1713 24.3207 11.6524 23.9998Z" fill="#D5D1ED"/>
<path d="M31.3871 29.4987C30.7496 29.7029 30.4234 29.4695 30.1417 28.9736C29.5783 27.938 28.9407 26.9316 28.4366 25.7209C28.6738 25.7793 29.0445 25.7647 29.1483 25.9251C29.9193 27.0191 30.631 28.1422 31.3575 29.2653C31.402 29.3091 31.3871 29.3966 31.3871 29.4987Z" fill="#D5D1ED"/>
<path d="M11.1631 11.4121C9.96211 11.237 9.54695 10.4202 9.11697 9.54504C10.1549 9.39918 10.4514 9.66173 11.1631 11.4121Z" fill="#D5D1ED"/>
<path d="M30.9572 9.42836C30.4382 10.2889 29.9934 11.0766 29 11.3829C29.0297 10.1722 29.7414 9.47211 30.9572 9.42836Z" fill="#D5D1ED"/>
</svg>
