<svg width="40" height="40" viewBox="0 0 40 40" fill="none" xmlns="http://www.w3.org/2000/svg">
<path d="M19.9804 0.00618845C20.0589 -0.00225223 20.129 -0.00187121 20.1918 0.00618845C20.7318 0.0755307 20.7227 0.713262 20.7159 1.19149C20.7151 1.24271 20.7144 1.29209 20.7144 1.33876V4.7146C20.7144 4.80546 20.7184 4.90579 20.7225 5.01118C20.7465 5.62711 20.7773 6.4155 20.0722 6.49136C19.2464 6.58019 19.2464 5.69181 19.2464 5.24762V1.87178C19.2464 1.77249 19.2428 1.66798 19.2391 1.56119C19.2166 0.903617 19.1911 0.159039 19.9804 0.00618845Z" fill="#D5D1ED"/>
<path d="M10.9884 3.5597C11.5793 3.48819 11.8134 3.87723 12.0738 4.30973C12.1368 4.4145 12.2014 4.52182 12.273 4.62576L14.3833 7.82392C14.3998 7.84784 14.4166 7.8721 14.4337 7.89669C14.7968 8.42018 15.2597 9.08758 14.3833 9.51184C13.7977 9.58272 13.5041 9.08818 13.223 8.61463C13.1517 8.49459 13.0812 8.3759 13.007 8.26811L11.0802 5.24762C11.0558 5.21224 11.0302 5.17569 11.004 5.13816C10.6347 4.61041 10.1318 3.89147 10.9884 3.5597Z" fill="#D5D1ED"/>
<path d="M28.7889 3.47087C29.6147 3.47087 29.7982 4.00389 29.4312 4.62576C28.7889 5.69181 28.1466 6.66903 27.4126 7.73509L26.862 8.62346C26.6785 8.97882 26.495 9.33417 26.128 9.42301C25.394 9.51184 25.1187 8.88998 25.4857 8.26811C25.951 7.42336 26.527 6.5429 27.0967 5.67201C27.4257 5.1691 27.7526 4.66938 28.0549 4.18157C28.1466 3.91506 28.3301 3.64854 28.7889 3.47087Z" fill="#D5D1ED"/>
<path d="M35.0282 10.8444C35.5788 10.7556 35.9458 11.3774 35.6705 11.8216C35.478 12.1323 34.3427 12.4865 33.4579 12.7625C33.0778 12.8811 32.7439 12.9853 32.5509 13.0654L30.4405 13.7761C30.2101 13.8318 29.9797 13.9226 29.772 14.0044C29.6488 14.053 29.5337 14.0983 29.4312 14.1314C28.7889 14.2203 28.5136 13.4207 28.7889 12.9765C28.9724 12.71 29.7064 12.5323 30.0735 12.4435L33.8354 11.1998C34.0189 11.1553 34.2254 11.0887 34.4318 11.0221C34.6383 10.9555 34.8447 10.8888 35.0282 10.8444Z" fill="#D5D1ED"/>
<path d="M4.84081 10.8444C5.11863 10.7772 5.44902 10.9135 5.7126 11.0223C5.79723 11.0572 5.87497 11.0893 5.94187 11.1109L7.50171 11.5551C7.76971 11.6416 8.14403 11.7468 8.55251 11.8616C9.40267 12.1006 10.4008 12.3811 10.8966 12.6212C11.4472 12.8877 11.2637 13.7761 10.5296 13.8649C10.2696 13.8649 9.9635 13.7757 9.67662 13.6921C9.55858 13.6577 9.4438 13.6243 9.33681 13.5984L7.40995 12.9765C7.26033 12.9282 6.98871 12.8471 6.66693 12.7511C5.80476 12.4936 4.58249 12.1287 4.38203 11.9993C3.92326 11.644 4.10677 10.9333 4.84081 10.8444Z" fill="#D5D1ED"/>
<path d="M21.999 9.77836C22.8359 9.77836 22.7896 10.4502 22.7494 11.0343C22.7411 11.1546 22.7331 11.2712 22.7331 11.3774L22.5495 12.9765C22.4578 13.6428 22.389 14.3313 22.3202 15.0198C22.2513 15.7083 22.1825 16.3968 22.0908 17.0631C22.2743 17.0186 22.4349 16.952 22.5954 16.8854C22.756 16.8188 22.9166 16.7521 23.1001 16.7077L25.0269 15.997C25.1243 15.9656 25.2446 15.9147 25.3772 15.8587C25.9945 15.5977 26.8783 15.224 26.9538 16.1747C26.9538 16.6189 26.7703 17.3296 26.5868 17.7738C25.683 20.7636 24.2846 22.257 22.4931 24.1701C22.1021 24.5877 21.6924 25.0252 21.265 25.5027C21.1631 25.6013 21.0684 25.7204 20.9709 25.8429C20.7169 26.1621 20.4445 26.5045 19.9804 26.5687C19.0616 26.3463 19.3567 25.3198 19.5863 24.5214C19.6318 24.363 19.6748 24.2136 19.7051 24.0813C19.7918 23.5495 19.8877 23.0178 19.984 22.4833C20.1934 21.3211 20.4052 20.1457 20.5309 18.9287L17.7783 19.9947C17.6627 20.0395 17.5477 20.0855 17.4344 20.1309C16.1997 20.6252 15.1713 21.0369 15.7597 18.8398C16.769 15.6417 18.1453 12.9765 20.7144 10.6667C21.0815 10.3114 21.5402 9.95603 21.999 9.77836Z" fill="#D5D1ED"/>
<path d="M4.56554 21.505C10.1626 21.3273 16.0349 24.5255 18.1453 29.678C19.1546 31.9878 18.9711 33.5869 18.0535 35.8079L17.7783 35.5414C17.64 35.3766 17.5042 35.2107 17.3691 35.0455C16.3379 33.7854 15.3422 32.5685 13.5575 32.2543C13.2994 32.2127 13.0615 32.1906 12.8366 32.1697C12.1022 32.1014 11.5073 32.0461 10.8049 31.366C10.1381 30.7204 10.0528 30.1687 9.95033 29.5062C9.91179 29.257 9.87082 28.9922 9.79559 28.7008C9.42857 27.1906 8.69452 26.3022 7.50171 25.325L4.38203 22.7487C4.07799 22.4543 3.77395 22.2209 3.41774 21.9474C3.34396 21.8908 3.26794 21.8324 3.18922 21.7715C3.64799 21.505 4.10677 21.505 4.56554 21.505Z" fill="#D5D1ED"/>
<path d="M1.62938 22.3933C2.45518 23.0152 3.28097 23.6815 4.10677 24.3478C4.93257 25.0141 5.75836 25.6803 6.58416 26.3022C7.96048 27.4571 8.23575 28.079 8.51101 29.678C8.78628 31.5436 10.2544 33.1427 12.273 33.4092C12.4565 33.4537 12.64 33.4537 12.8235 33.4537C13.007 33.4537 13.1905 33.4537 13.374 33.4981C14.7133 33.7269 15.4438 34.6106 16.2044 35.5307C16.3296 35.6823 16.4557 35.8348 16.5855 35.9855C16.7231 36.1632 16.8607 36.3187 16.9984 36.4741C17.136 36.6296 17.2736 36.7851 17.4113 36.9628C16.9593 37.6921 16.5073 38.0622 15.9538 38.5154C15.8331 38.6142 15.7076 38.717 15.5762 38.8284C15.4585 38.8284 15.3031 38.9379 15.1584 39.0399C15.0774 39.097 14.9997 39.1518 14.9339 39.1837C10.0709 41.6712 4.6573 37.3181 2.54693 33.3204C0.895341 30.1222 0.52832 25.7692 1.62938 22.3933Z" fill="#D5D1ED"/>
<path fill-rule="evenodd" clip-rule="evenodd" d="M20.1918 0.00618845H19.9804C19.1911 0.159039 19.2166 0.903617 19.2391 1.56119C19.2428 1.66798 19.2464 1.77249 19.2464 1.87178V5.24762C19.2464 5.69181 19.2464 6.58019 20.0722 6.49136C20.7773 6.4155 20.7465 5.62711 20.7225 5.01118C20.7184 4.90579 20.7144 4.80546 20.7144 4.7146V1.33876C20.7144 1.29209 20.7151 1.24271 20.7159 1.19149C20.7227 0.713262 20.7318 0.0755307 20.1918 0.00618845ZM27.5183 39.9832H28.4403C28.1328 40.0052 27.825 40.0059 27.5183 39.9832ZM12.0738 4.30973C12.1368 4.4145 12.2014 4.52182 12.273 4.62576L14.3833 7.82392C14.3998 7.84784 14.4166 7.8721 14.4337 7.89669C14.7968 8.42018 15.2597 9.08758 14.3833 9.51184C13.7977 9.58272 13.5041 9.08818 13.223 8.61463C13.1517 8.49459 13.0812 8.3759 13.007 8.26811L11.0802 5.24762C11.0558 5.21224 11.0302 5.17569 11.004 5.13816C10.6347 4.61041 10.1318 3.89147 10.9884 3.5597C11.5793 3.48819 11.8134 3.87723 12.0738 4.30973ZM28.7889 3.47087C29.6147 3.47087 29.7982 4.00389 29.4312 4.62576C28.7889 5.69181 28.1466 6.66903 27.4126 7.73509L26.862 8.62346C26.6785 8.97882 26.495 9.33417 26.128 9.42301C25.394 9.51184 25.1187 8.88998 25.4857 8.26811C25.951 7.42336 26.527 6.5429 27.0967 5.67201C27.4257 5.1691 27.7526 4.66938 28.0549 4.18157C28.1466 3.91506 28.3301 3.64854 28.7889 3.47087ZM35.0282 10.8444C35.5788 10.7556 35.9458 11.3774 35.6705 11.8216C35.478 12.1323 34.3427 12.4865 33.4579 12.7625C33.0778 12.8811 32.7439 12.9853 32.5509 13.0654L30.4405 13.7761C30.2101 13.8318 29.9797 13.9226 29.772 14.0044C29.6488 14.053 29.5337 14.0983 29.4312 14.1314C28.7889 14.2203 28.5136 13.4207 28.7889 12.9765C28.9724 12.71 29.7064 12.5323 30.0735 12.4435L33.8354 11.1998C34.0189 11.1553 34.2254 11.0887 34.4318 11.0221C34.6383 10.9555 34.8447 10.8888 35.0282 10.8444ZM5.7126 11.0223C5.79723 11.0572 5.87497 11.0893 5.94187 11.1109L7.50171 11.5551C7.76971 11.6416 8.14403 11.7468 8.55251 11.8616C9.40267 12.1006 10.4008 12.3811 10.8966 12.6212C11.4472 12.8877 11.2637 13.7761 10.5296 13.8649C10.2696 13.8649 9.9635 13.7757 9.67662 13.6921C9.55858 13.6577 9.4438 13.6243 9.33681 13.5984L7.40995 12.9765C7.26033 12.9282 6.98871 12.8471 6.66693 12.7511C5.80476 12.4936 4.58249 12.1287 4.38203 11.9993C3.92326 11.644 4.10677 10.9333 4.84081 10.8444C5.11863 10.7772 5.44902 10.9135 5.7126 11.0223ZM22.7494 11.0343C22.7411 11.1546 22.7331 11.2712 22.7331 11.3774L22.5495 12.9765C22.4578 13.6428 22.389 14.3313 22.3202 15.0198C22.2513 15.7083 22.1825 16.3968 22.0908 17.0631C22.2743 17.0186 22.4349 16.952 22.5954 16.8854C22.756 16.8188 22.9166 16.7521 23.1001 16.7077L25.0269 15.997C25.1243 15.9656 25.2446 15.9147 25.3772 15.8587C25.9945 15.5977 26.8783 15.224 26.9538 16.1747C26.9538 16.6189 26.7703 17.3296 26.5868 17.7738C25.683 20.7636 24.2846 22.257 22.4931 24.1701C22.1021 24.5877 21.6924 25.0252 21.265 25.5027C21.1631 25.6013 21.0684 25.7204 20.9709 25.8429C20.7169 26.1621 20.4445 26.5045 19.9804 26.5687C19.0616 26.3463 19.3567 25.3198 19.5863 24.5214C19.6318 24.363 19.6748 24.2136 19.7051 24.0813C19.7918 23.5495 19.8877 23.0178 19.984 22.4833C20.1934 21.3211 20.4052 20.1457 20.5309 18.9287L17.7783 19.9947C17.6627 20.0395 17.5477 20.0855 17.4344 20.1309C16.1997 20.6252 15.1713 21.0369 15.7597 18.8398C16.769 15.6417 18.1453 12.9765 20.7144 10.6667C21.0815 10.3114 21.5402 9.95603 21.999 9.77836C22.8359 9.77836 22.7896 10.4502 22.7494 11.0343ZM4.56554 21.505C10.1626 21.3273 16.0349 24.5255 18.1453 29.678C19.1546 31.9878 18.9711 33.5869 18.0535 35.8079L17.7783 35.5414C17.64 35.3766 17.5042 35.2107 17.3691 35.0455C16.3379 33.7854 15.3422 32.5685 13.5575 32.2543C13.2994 32.2127 13.0615 32.1906 12.8366 32.1697C12.1022 32.1014 11.5073 32.0461 10.8049 31.366C10.1381 30.7204 10.0528 30.1687 9.95033 29.5062C9.91179 29.257 9.87082 28.9922 9.79559 28.7008C9.42857 27.1906 8.69452 26.3022 7.50171 25.325L4.38203 22.7487C4.07799 22.4543 3.77395 22.2209 3.41774 21.9474C3.34396 21.8908 3.26794 21.8324 3.18922 21.7715C3.64799 21.505 4.10677 21.505 4.56554 21.505ZM4.10677 24.3478C4.93257 25.0141 5.75836 25.6803 6.58416 26.3022C7.96048 27.4571 8.23575 28.079 8.51101 29.678C8.78628 31.5436 10.2544 33.1427 12.273 33.4092C12.4565 33.4537 12.64 33.4537 12.8235 33.4537C13.007 33.4537 13.1905 33.4537 13.374 33.4981C14.7133 33.7269 15.4438 34.6106 16.2044 35.5307C16.3296 35.6823 16.4557 35.8348 16.5855 35.9855C16.7231 36.1632 16.8607 36.3187 16.9984 36.4741C17.136 36.6296 17.2736 36.7851 17.4113 36.9628C16.9593 37.6921 16.5073 38.0622 15.9538 38.5154C15.8331 38.6142 15.7076 38.717 15.5762 38.8284C15.4585 38.8284 15.3031 38.9379 15.1584 39.0399C15.0774 39.097 14.9997 39.1518 14.9339 39.1837C10.0709 41.6712 4.6573 37.3181 2.54693 33.3204C0.895341 30.1222 0.52832 25.7692 1.62938 22.3933C2.45518 23.0152 3.28097 23.6815 4.10677 24.3478Z" fill="#D5D1ED"/>
<path d="M34.386 21.505C35.2118 21.4161 35.9458 21.505 36.7716 21.6826C36.4046 22.038 36.0375 22.3045 35.6705 22.571L33.1931 24.6143C31.7251 25.7692 30.5322 26.7464 30.1652 28.7008C30.1134 28.9518 30.0835 29.1885 30.0549 29.4151C29.9823 29.9907 29.918 30.5007 29.5229 31.0106C28.7889 31.9878 27.6878 32.0767 26.5868 32.1655C24.5465 32.4026 24.0306 33.0613 23.0375 34.3293C22.9141 34.4869 22.7833 34.6539 22.6413 34.8306C22.366 35.0972 22.0908 35.4525 21.9073 35.719C21.265 34.3865 21.0815 32.8762 21.265 31.366C21.999 26.5687 26.9538 22.9264 31.5415 21.8603C32.5509 21.6826 33.4684 21.5938 34.386 21.505Z" fill="#D5D1ED"/>
<path d="M36.2211 35.186C38.6067 31.9878 39.4325 27.9901 38.7902 24.1701C38.7645 24.0705 38.7316 23.9082 38.6935 23.7202L38.6932 23.7191C38.5954 23.2363 38.4634 22.585 38.3314 22.3933C37.8727 22.6599 37.4139 23.0152 36.9551 23.3706L34.2942 25.5027C34.1483 25.6222 34.0038 25.7377 33.8619 25.8512C32.8431 26.6657 31.9554 27.3753 31.6333 28.7008C31.5874 28.9229 31.5645 29.145 31.5415 29.3671C31.5186 29.5892 31.4957 29.8113 31.4498 30.0334C31.0828 32.0767 29.2477 33.3204 27.2291 33.4981C25.3654 33.6621 25.0659 34.0533 24.1644 35.231C24.0895 35.3289 24.0104 35.4323 23.9259 35.5414C23.7424 35.8079 23.5359 36.0522 23.3295 36.2965C23.123 36.5408 22.9166 36.7851 22.7331 37.0516C23.2836 37.7623 23.8341 38.3842 24.5682 38.9172C25.5077 39.5788 26.5069 39.9084 27.5183 39.9832H28.4403C31.4774 39.7662 34.495 37.4761 36.2211 35.186Z" fill="#D5D1ED"/>
</svg>
